<?xml version="1.0" standalone="no"?>
<!DOCTYPE svg PUBLIC "-//W3C//DTD SVG 20010904//EN"
 "http://www.w3.org/TR/2001/REC-SVG-20010904/DTD/svg10.dtd">
<svg version="1.0" xmlns="http://www.w3.org/2000/svg"
 width="768.000000pt" height="768.000000pt" viewBox="0 0 768.000000 768.000000"
 preserveAspectRatio="xMidYMid meet">
<metadata>
Created by potrace 1.11, written by Peter Selinger 2001-2013
</metadata>
<g transform="translate(0.000000,768.000000) scale(0.100000,-0.100000)"
fill="#000000" stroke="none">
<path d="M3570 6110 c-222 -28 -492 -105 -683 -194 -344 -160 -697 -453 -892
-742 l-33 -49 -114 4 c-105 2 -115 1 -142 -20 -54 -42 -183 -362 -257 -638
-28 -104 -16 -154 41 -166 16 -4 44 -26 68 -54 40 -47 40 -49 29 -92 -7 -27
-11 -151 -11 -324 0 -264 1 -288 27 -416 74 -378 220 -707 437 -988 39 -50
125 -147 192 -217 314 -324 708 -537 1178 -636 152 -32 160 -32 420 -32 213 0
284 3 360 17 383 72 680 198 987 418 96 69 257 211 309 274 21 25 59 69 83 97
23 28 68 84 97 125 61 81 56 80 176 61 114 -17 147 -5 188 70 35 63 149 396
185 537 41 162 9 264 -83 265 -48 0 -56 30 -43 160 14 132 14 397 1 515 -36
311 -145 645 -295 901 -169 289 -359 500 -626 699 -262 195 -556 325 -894 396
-140 29 -167 31 -395 34 -135 2 -274 0 -310 -5z m660 -133 c58 -12 95 -23 83
-25 -36 -5 -27 -17 35 -44 32 -15 69 -36 82 -48 l25 -21 -25 7 c-14 4 -47 18
-74 31 -54 27 -205 85 -301 115 l-60 18 65 -5 c36 -3 112 -15 170 -28z m-507
-94 c10 -138 9 -275 -2 -269 -4 3 -11 79 -15 168 -4 90 -12 165 -17 166 -10 4
8 32 21 32 4 0 10 -44 13 -97z m-171 17 c-27 -32 -72 -100 -101 -150 -46 -77
-71 -107 -71 -84 0 12 76 141 112 191 21 29 38 57 38 62 0 10 46 40 62 41 5 0
-14 -27 -40 -60z m501 -75 c38 -24 47 -44 38 -85 l-6 -33 -19 28 c-13 20 -15
30 -8 33 15 5 16 32 2 32 -5 0 -10 -4 -10 -10 0 -21 -16 -8 -47 38 -18 26 -45
63 -60 82 -22 27 -16 24 27 -16 30 -28 68 -59 83 -69z m-203 -11 c20 -31 25
-52 25 -101 0 -60 -1 -63 -24 -63 -14 0 -32 -7 -41 -15 -16 -14 -17 -9 -23 67
-4 46 -7 117 -7 158 l1 75 22 -41 c12 -23 33 -59 47 -80z m-213 69 c-1 -20 -9
-30 -26 -35 -34 -10 -37 -4 -11 31 27 38 39 39 37 4z m-467 3 c0 -2 -7 -7 -16
-10 -8 -3 -12 -2 -9 4 6 10 25 14 25 6z m239 -43 c-46 -48 -96 -126 -108 -168
l-6 -23 -62 19 c-35 11 -63 23 -63 28 0 17 253 190 280 191 2 0 -16 -21 -41
-47z m-104 29 c-6 -5 -39 -30 -75 -55 -36 -25 -74 -55 -84 -66 -11 -12 -26
-21 -35 -21 -23 0 83 90 143 122 54 29 66 33 51 20z m-175 -6 c0 -2 -7 -7 -16
-10 -8 -3 -12 -2 -9 4 6 10 25 14 25 6z m-120 -26 c0 -5 -5 -10 -11 -10 -5 0
-7 5 -4 10 3 6 8 10 11 10 2 0 4 -4 4 -10z m46 -15 c-11 -8 -27 -15 -35 -15
-9 1 -2 7 14 15 39 18 44 18 21 0z m534 -35 c10 0 22 5 25 10 14 23 21 6 20
-52 0 -35 4 -74 9 -87 8 -23 8 -23 -15 -7 -13 9 -41 16 -62 16 -23 0 -36 4
-32 10 12 19 -32 10 -50 -10 -28 -31 -29 -17 -1 38 34 68 80 121 84 99 2 -9
12 -17 22 -17z m-710 -4 c0 -3 -26 -20 -57 -40 -117 -70 -228 -156 -325 -251
-108 -106 -178 -189 -178 -211 0 -23 -14 -16 -33 16 -22 36 -16 48 50 111 133
127 308 255 457 335 86 46 86 46 86 40z m38 -41 c-2 -3 -41 -31 -85 -62 -133
-95 -266 -218 -364 -336 -51 -62 -96 -116 -101 -121 -5 -6 -12 -6 -20 2 -8 8
-6 16 9 29 12 10 54 56 94 103 80 91 147 157 247 240 69 57 202 149 216 150 5
0 7 -2 4 -5z m1258 -22 c-7 -7 -26 7 -26 19 0 6 6 6 15 -2 9 -7 13 -15 11 -17z
m-146 -36 c0 -5 -7 -4 -15 3 -8 7 -15 20 -15 29 1 13 3 13 15 -3 8 -11 15 -24
15 -29z m-1050 8 c0 -8 -9 -15 -19 -15 -11 0 -23 -4 -26 -10 -3 -5 -12 -10
-18 -10 -14 1 39 50 54 50 5 0 9 -7 9 -15z m12 -93 c-38 -43 -88 -104 -111
-135 -23 -31 -46 -57 -52 -57 -14 0 22 61 71 119 22 26 40 53 40 59 0 6 12 18
28 26 15 8 37 26 49 40 13 14 28 26 33 26 6 0 -20 -35 -58 -78z m973 40 c-3
-3 -11 0 -18 7 -9 10 -8 11 6 5 10 -3 15 -9 12 -12z m-777 -18 c28 -10 52 -21
52 -25 0 -8 -85 -50 -155 -76 -64 -24 -120 -92 -111 -135 4 -22 -2 -40 -30
-78 -21 -29 -44 -50 -54 -50 -22 0 -80 -46 -80 -63 0 -12 -59 -51 -67 -44 -2
2 12 16 32 31 25 19 35 35 35 54 0 15 10 47 21 72 36 81 267 347 292 336 6 -2
36 -13 65 -22z m-340 -54 c-100 -137 -153 -199 -177 -205 -32 -8 -87 -49 -102
-76 -12 -24 4 -51 27 -42 8 3 14 1 14 -5 0 -19 -29 -79 -44 -92 -9 -7 -16 -19
-16 -26 0 -20 -14 -18 -73 12 -83 42 -82 39 -29 108 91 119 312 333 387 374
17 9 21 8 23 -9 2 -11 -2 -29 -10 -39z m552 -84 c0 -3 -4 -8 -10 -11 -5 -3
-10 -1 -10 4 0 6 5 11 10 11 6 0 10 -2 10 -4z m-99 -63 c-8 -15 -10 -15 -11
-2 0 17 10 32 18 25 2 -3 -1 -13 -7 -23z m-240 -63 c18 0 9 -16 -19 -32 l-28
-17 4 30 c3 21 9 29 19 25 8 -3 19 -6 24 -6z m219 -8 c0 -20 -26 -41 -39 -33
-12 8 -12 12 -2 25 14 17 41 22 41 8z m-510 -36 c0 -16 -30 -50 -37 -42 -4 4
27 55 35 56 1 0 2 -6 2 -14z m317 -23 c-9 -9 -20 -13 -24 -9 -4 4 -1 11 7 16
25 16 35 11 17 -7z m-842 -30 l18 -28 -21 19 c-12 11 -22 23 -22 28 0 14 7 9
25 -19z m903 -11 c-13 -9 -26 -21 -30 -26 -5 -8 -13 -8 -25 0 -26 16 -27 34
-1 34 13 0 29 4 37 9 8 5 20 7 28 4 10 -4 8 -10 -9 -21z m-929 -47 c16 -9 13
-26 -11 -65 -12 -19 -22 -39 -23 -45 0 -13 -76 -18 -94 -6 -17 11 -11 21 59
110 39 49 44 53 51 34 4 -12 12 -24 18 -28z m3341 3 c0 -6 -7 -5 -15 2 -8 7
-15 17 -15 22 0 6 7 5 15 -2 8 -7 15 -17 15 -22z m30 -39 c0 -6 -4 -7 -10 -4
-5 3 -10 11 -10 16 0 6 5 7 10 4 6 -3 10 -11 10 -16z m-2915 -27 c-10 -10 -16
-12 -13 -7 3 6 8 19 13 30 5 14 9 16 12 7 3 -8 -3 -21 -12 -30z m-365 2 c0
-10 -45 -84 -52 -84 -18 0 -15 20 8 53 22 32 44 48 44 31z m117 -75 c51 -22
57 -23 48 -9 -4 6 3 6 18 -1 23 -10 24 -14 15 -48 -17 -63 -24 -64 -84 -15
-32 25 -65 44 -79 44 -30 0 -31 3 -4 47 19 30 23 33 31 18 6 -9 30 -25 55 -36z
m-632 1 c12 -19 -66 -247 -126 -368 -26 -52 -37 -64 -61 -69 -34 -7 -37 -12
-75 -158 -15 -58 -31 -105 -35 -105 -5 0 -8 6 -8 14 0 23 56 207 87 286 17 41
36 98 43 125 19 71 108 253 133 270 25 18 34 19 42 5z m108 -6 c5 -6 -24 -91
-57 -164 -76 -171 -162 -437 -151 -470 8 -26 37 -26 53 1 7 11 42 102 78 202
78 219 131 354 150 385 18 28 69 30 83 3 8 -14 2 -40 -24 -107 -19 -49 -71
-192 -116 -319 -111 -314 -143 -375 -198 -375 -37 0 -90 35 -102 68 -27 68 19
275 118 527 94 240 102 255 133 255 15 0 29 -3 33 -6z m402 -83 c84 -29 115
-65 115 -135 0 -57 -29 -165 -62 -231 -36 -69 -76 -113 -123 -131 -25 -9 -45
-19 -46 -23 0 -3 -8 -102 -17 -220 -13 -167 -20 -216 -32 -223 -11 -7 -33 -2
-74 16 l-58 26 6 72 c22 275 19 285 -33 103 -17 -60 -35 -113 -40 -118 -9 -9
-111 38 -111 51 0 4 18 68 39 142 74 252 215 651 245 689 14 19 113 10 191
-18z m382 -126 c129 -41 145 -49 170 -82 38 -50 43 -145 14 -261 -41 -160
-101 -263 -175 -303 l-46 -24 -85 29 c-47 16 -87 27 -89 25 -2 -2 -25 -74 -51
-159 -45 -149 -58 -180 -76 -180 -4 0 -35 16 -68 35 -46 27 -61 41 -61 59 0
12 53 182 118 377 157 468 180 529 201 529 4 0 70 -20 148 -45z m216 38 c-7
-2 -13 -11 -13 -19 0 -9 -4 -13 -10 -9 -14 9 0 35 19 34 10 0 11 -2 4 -6z
m505 -45 c-54 -58 -80 -97 -87 -130 -9 -45 -31 -48 -31 -4 0 58 85 166 130
166 15 0 12 -6 -12 -32z m162 27 c0 -3 -9 -24 -20 -45 -15 -30 -26 -40 -45
-40 -34 0 -41 18 -9 22 26 3 37 14 48 51 5 15 26 25 26 12z m444 -20 c-29 -12
-56 -31 -62 -41 -13 -23 0 -64 39 -125 28 -44 31 -55 25 -97 -4 -35 -2 -53 10
-70 19 -27 4 -29 -21 -2 -16 17 -16 24 -5 65 11 39 10 48 -4 67 -56 77 -68
101 -73 135 -5 36 -2 41 33 65 24 17 53 27 74 27 l35 0 -51 -24z m-922 -142
c79 -33 88 -40 88 -67 0 -11 -30 -106 -66 -211 -79 -228 -174 -519 -174 -533
0 -5 26 -21 58 -34 87 -38 89 -42 62 -146 -13 -48 -28 -93 -34 -99 -9 -10 -35
-3 -121 32 -150 62 -205 88 -211 97 -3 4 15 70 40 145 24 76 63 199 86 273
100 322 189 570 205 570 2 0 32 -12 67 -27z m473 -13 c57 -34 35 -41 -30 -10
-22 11 -48 19 -57 20 -10 0 -18 5 -18 10 0 20 56 9 105 -20z m40 -166 c156
-58 206 -80 216 -97 16 -24 -40 -191 -67 -201 -8 -3 -54 13 -103 34 -49 22
-95 40 -103 40 -13 0 -27 -34 -54 -132 -6 -19 40 -47 114 -69 23 -7 47 -17 52
-24 6 -8 -3 -44 -28 -111 -28 -76 -42 -100 -57 -102 -11 -1 -51 11 -90 27 -59
25 -71 28 -78 15 -10 -17 -57 -154 -57 -164 0 -4 28 -19 63 -34 167 -73 158
-67 151 -100 -10 -48 -42 -136 -59 -162 l-15 -23 -72 26 c-151 53 -174 62
-228 87 -97 46 -105 51 -104 72 3 30 308 926 324 952 8 12 22 22 31 22 9 0 83
-25 164 -56z m-434 -175 c-6 -16 -10 -18 -10 -7 -1 22 12 55 16 42 2 -6 -1
-22 -6 -35z m1164 -118 c74 -37 95 -53 95 -75 0 -10 -23 -141 -51 -293 -28
-151 -48 -277 -46 -280 9 -8 92 141 188 335 88 179 91 184 117 178 49 -12 130
-48 135 -59 6 -16 -10 -131 -64 -460 -11 -71 -18 -131 -15 -134 6 -6 110 199
186 370 32 71 60 130 63 133 7 7 97 -17 138 -37 68 -34 72 -19 -95 -350 -242
-482 -306 -599 -329 -599 -19 0 -198 67 -210 79 -6 6 -2 48 13 128 32 171 51
295 48 313 -2 8 -28 -30 -58 -85 -29 -55 -71 -131 -92 -170 -21 -38 -44 -80
-50 -93 -10 -20 -17 -22 -52 -17 -23 4 -50 12 -61 19 -11 7 -44 21 -74 32 -29
10 -55 24 -58 30 -2 7 28 203 67 435 39 233 78 465 86 514 8 50 17 96 19 103
7 19 35 14 100 -17z m-337 -101 c-14 -22 -24 -19 -15 5 4 8 11 15 17 15 6 0 6
-7 -2 -20z m-2233 -25 c24 -23 33 -45 18 -45 -5 1 -26 16 -48 35 -36 31 -38
35 -17 35 13 0 34 -11 47 -25z m4265 -166 c0 -46 -4 -79 -10 -79 -5 0 -10 -17
-11 -37 0 -21 -4 -56 -8 -78 -7 -31 -9 -13 -10 77 -1 68 3 119 9 123 6 3 10
24 10 46 0 24 4 38 10 34 6 -3 10 -42 10 -86z m-599 48 c-10 -9 -11 -8 -5 6 3
10 9 15 12 12 3 -3 0 -11 -7 -18z m-3726 -72 c-13 -107 -23 -115 -24 -19 -1
50 2 94 6 98 15 14 25 -28 18 -79z m3670 -139 c119 -54 161 -126 159 -276 -1
-71 -9 -109 -48 -234 -89 -283 -145 -393 -226 -447 -40 -28 -51 -30 -100 -25
-70 7 -134 29 -178 63 -89 67 -84 184 21 530 102 334 167 432 276 419 24 -4
67 -17 96 -30z m358 -170 c76 -31 136 -73 159 -111 27 -45 24 -145 -8 -247
-32 -103 -68 -161 -114 -185 -28 -15 -36 -25 -38 -53 -8 -88 -54 -345 -63
-357 -14 -16 -48 -17 -85 -3 -25 10 -26 13 -20 58 4 26 11 83 17 127 5 44 12
88 15 99 4 11 2 16 -4 12 -5 -3 -29 -60 -52 -127 -24 -66 -48 -123 -54 -125
-19 -7 -111 33 -114 50 -2 8 18 75 43 148 66 188 156 472 196 615 24 88 38
123 49 123 8 0 41 -11 73 -24z m284 -71 c-4 -8 -11 -15 -17 -15 -7 0 -7 6 0
21 13 23 26 19 17 -6z m-2 -109 l29 -24 -18 -78 c-21 -93 -104 -370 -141 -473
-26 -71 -26 -91 0 -91 8 0 16 -4 19 -8 5 -9 -40 -142 -53 -155 -8 -8 -126 9
-143 19 -5 3 -3 15 3 26 32 60 107 279 164 478 89 310 95 330 103 330 4 0 20
-11 37 -24z m-3895 -66 c-20 -13 -33 -13 -25 0 3 6 14 10 23 10 15 0 15 -2 2
-10z m1690 -10 c0 -5 -2 -10 -4 -10 -3 0 -8 5 -11 10 -3 6 -1 10 4 10 6 0 11
-4 11 -10z m2340 -20 c27 -15 31 -51 14 -137 -8 -43 -17 -89 -19 -103 -6 -39
-130 -389 -158 -446 -26 -51 -41 -64 -78 -64 -26 0 -24 21 7 105 75 202 176
520 190 600 10 59 12 62 44 45z m-2340 -41 c0 -6 -4 -7 -10 -4 -5 3 -10 11
-10 16 0 6 5 7 10 4 6 -3 10 -11 10 -16z m20 -413 c0 -2 -8 -10 -17 -17 -16
-13 -17 -12 -4 4 13 16 21 21 21 13z m1805 -333 c-34 -52 -108 -148 -169 -217
-61 -69 -267 -258 -274 -252 -2 2 21 26 50 52 81 74 188 188 188 201 0 6 10
19 22 27 28 20 117 131 143 179 12 23 27 37 38 37 19 0 19 -1 2 -27z m-460
-483 c-3 -5 -12 -10 -18 -10 -7 0 -6 4 3 10 19 12 23 12 15 0z m-35 -24 c0 -2
-12 -11 -27 -20 l-28 -17 24 20 c23 21 31 25 31 17z m-60 -40 c0 -2 -8 -10
-17 -17 -16 -13 -17 -12 -4 4 13 16 21 21 21 13z m-200 -130 c0 -2 -7 -7 -16
-10 -8 -3 -12 -2 -9 4 6 10 25 14 25 6z"/>
<path d="M1684 4913 c-8 -21 -24 -57 -35 -80 -22 -49 -24 -66 -7 -61 11 4 77
149 78 171 0 22 -23 2 -36 -30z"/>
<path d="M2175 4829 c-2 -8 -18 -52 -35 -98 -33 -92 -30 -105 20 -103 40 1 58
17 81 67 22 47 24 94 7 118 -18 22 -66 33 -73 16z"/>
<path d="M2580 4600 c-18 -50 -33 -107 -34 -127 -1 -34 1 -36 44 -49 43 -13
46 -13 67 11 29 33 63 127 63 175 0 44 -21 65 -76 76 l-31 6 -33 -92z"/>
<path d="M5267 3568 c-24 -13 -52 -72 -99 -207 -87 -253 -89 -302 -10 -332 63
-24 98 24 166 232 64 194 71 226 54 258 -16 31 -88 62 -111 49z"/>
<path d="M5725 3418 c-3 -7 -16 -53 -30 -102 -28 -95 -25 -106 23 -106 67 0
109 144 57 195 -27 28 -43 32 -50 13z"/>
<path d="M6118 3164 c-5 -4 -8 -17 -8 -28 0 -12 -27 -100 -60 -196 -56 -164
-64 -198 -40 -174 20 20 121 339 118 372 -2 19 -6 30 -10 26z"/>
</g>
</svg>
